<?xml version="1.0" encoding="UTF-8" standalone="no"?>
<!DOCTYPE svg PUBLIC "-//W3C//DTD SVG 1.1//EN"
 "http://www.w3.org/Graphics/SVG/1.1/DTD/svg11.dtd">
<!-- Generated by graphviz version 2.43.0 (0)
 -->
<!-- Title: RLC_Compiler Pages: 1 -->
<svg width="383pt" height="550pt"
 viewBox="0.00 0.00 383.00 550.00" xmlns="http://www.w3.org/2000/svg" xmlns:xlink="http://www.w3.org/1999/xlink">
<g id="graph0" class="graph" transform="scale(1 1) rotate(0) translate(4 546)">
<title>RLC_Compiler</title>
<polygon fill="white" stroke="transparent" points="-4,4 -4,-546 379,-546 379,4 -4,4"/>
<g id="clust1" class="cluster">
<title>cluster_outputs</title>
<polygon fill="none" stroke="black" points="244,-8 244,-534 367,-534 367,-8 244,-8"/>
</g>
<!-- rl_file -->
<g id="node1" class="node">
<title>rl_file</title>
<polygon fill="#8ecae6" stroke="#8ecae6" points="48,-289 0,-289 0,-253 54,-253 54,-283 48,-289"/>
<polyline fill="none" stroke="#8ecae6" points="48,-289 48,-283 "/>
<polyline fill="none" stroke="#8ecae6" points="54,-283 48,-283 "/>
<text text-anchor="middle" x="27" y="-268.5" font-family="Helvetica,sans-Serif" font-size="10.00" fill="#0a3045">file.rl</text>
</g>
<!-- rlc -->
<g id="node2" class="node">
<title>rlc</title>
<polygon fill="#219ebc" stroke="#219ebc" points="180,-289 130,-289 126,-285 126,-253 176,-253 180,-257 180,-289"/>
<polyline fill="none" stroke="#219ebc" points="176,-285 126,-285 "/>
<polyline fill="none" stroke="#219ebc" points="176,-285 176,-253 "/>
<polyline fill="none" stroke="#219ebc" points="176,-285 180,-289 "/>
<text text-anchor="middle" x="153" y="-268.5" font-family="Helvetica,sans-Serif" font-size="10.00" fill="white">rlc</text>
</g>
<!-- rl_file&#45;&gt;rlc -->
<g id="edge1" class="edge">
<title>rl_file&#45;&gt;rlc</title>
<path fill="none" stroke="black" d="M54.3,-271C73.04,-271 98.38,-271 118.56,-271"/>
<polygon fill="black" stroke="black" points="118.74,-273.45 125.74,-271 118.74,-268.55 118.74,-273.45"/>
</g>
<!-- executable -->
<g id="node3" class="node">
<title>executable</title>
<polygon fill="#dddddd" stroke="#dddddd" points="340.5,-526 270.5,-526 270.5,-490 340.5,-490 340.5,-526"/>
<text text-anchor="middle" x="305.5" y="-505.5" font-family="Helvetica,sans-Serif" font-size="10.00">Executable</text>
</g>
<!-- rlc&#45;&gt;executable -->
<g id="edge2" class="edge">
<title>rlc&#45;&gt;executable</title>
<path fill="none" stroke="black" d="M158.47,-289.02C168.43,-326.24 195.5,-412.85 244,-469 249.74,-475.65 256.9,-481.59 264.25,-486.71"/>
<polygon fill="black" stroke="black" points="263.26,-488.99 270.45,-490.81 265.96,-484.9 263.26,-488.99"/>
</g>
<!-- shared -->
<g id="node4" class="node">
<title>shared</title>
<polygon fill="#dddddd" stroke="#dddddd" points="349,-447 262,-447 262,-411 349,-411 349,-447"/>
<text text-anchor="middle" x="305.5" y="-426.5" font-family="Helvetica,sans-Serif" font-size="10.00">Shared Library</text>
</g>
<!-- rlc&#45;&gt;shared -->
<g id="edge3" class="edge">
<title>rlc&#45;&gt;shared</title>
<path fill="none" stroke="black" d="M164.82,-289.09C180.23,-313.87 210.39,-358.82 244,-390 250.51,-396.04 258.07,-401.74 265.6,-406.81"/>
<polygon fill="black" stroke="black" points="264.69,-409.14 271.89,-410.92 267.37,-405.04 264.69,-409.14"/>
</g>
<!-- static -->
<g id="node5" class="node">
<title>static</title>
<polygon fill="#dddddd" stroke="#dddddd" points="346,-368 265,-368 265,-332 346,-332 346,-368"/>
<text text-anchor="middle" x="305.5" y="-347.5" font-family="Helvetica,sans-Serif" font-size="10.00">Static Library</text>
</g>
<!-- rlc&#45;&gt;static -->
<g id="edge4" class="edge">
<title>rlc&#45;&gt;static</title>
<path fill="none" stroke="black" d="M180.22,-284.76C203.29,-296.87 237.27,-314.71 263.87,-328.67"/>
<polygon fill="black" stroke="black" points="262.78,-330.87 270.11,-331.95 265.05,-326.53 262.78,-330.87"/>
</g>
<!-- header -->
<g id="node6" class="node">
<title>header</title>
<polygon fill="#dddddd" stroke="#dddddd" points="335,-289 276,-289 276,-253 335,-253 335,-289"/>
<text text-anchor="middle" x="305.5" y="-268.5" font-family="Helvetica,sans-Serif" font-size="10.00">header.h</text>
</g>
<!-- rlc&#45;&gt;header -->
<g id="edge5" class="edge">
<title>rlc&#45;&gt;header</title>
<path fill="none" stroke="black" d="M180.22,-271C204.72,-271 241.52,-271 268.72,-271"/>
<polygon fill="black" stroke="black" points="268.77,-273.45 275.77,-271 268.77,-268.55 268.77,-273.45"/>
</g>
<!-- godot -->
<g id="node7" class="node">
<title>godot</title>
<polygon fill="#dddddd" stroke="#dddddd" points="359,-210 252,-210 252,-174 359,-174 359,-210"/>
<text text-anchor="middle" x="305.5" y="-189.5" font-family="Helvetica,sans-Serif" font-size="10.00">Godot&#45;CPP Module</text>
</g>
<!-- rlc&#45;&gt;godot -->
<g id="edge6" class="edge">
<title>rlc&#45;&gt;godot</title>
<path fill="none" stroke="black" d="M180.22,-257.24C203.29,-245.13 237.27,-227.29 263.87,-213.33"/>
<polygon fill="black" stroke="black" points="265.05,-215.47 270.11,-210.05 262.78,-211.13 265.05,-215.47"/>
</g>
<!-- csharp -->
<g id="node8" class="node">
<title>csharp</title>
<polygon fill="#dddddd" stroke="#dddddd" points="343.5,-131 267.5,-131 267.5,-95 343.5,-95 343.5,-131"/>
<text text-anchor="middle" x="305.5" y="-110.5" font-family="Helvetica,sans-Serif" font-size="10.00">C# Wrapper</text>
</g>
<!-- rlc&#45;&gt;csharp -->
<g id="edge7" class="edge">
<title>rlc&#45;&gt;csharp</title>
<path fill="none" stroke="black" d="M165.17,-252.7C180.76,-228.13 210.87,-183.97 244,-153 250.89,-146.56 258.93,-140.46 266.85,-135.06"/>
<polygon fill="black" stroke="black" points="268.39,-136.98 272.87,-131.07 265.68,-132.9 268.39,-136.98"/>
</g>
<!-- python -->
<g id="node9" class="node">
<title>python</title>
<polygon fill="#dddddd" stroke="#dddddd" points="353,-52 258,-52 258,-16 353,-16 353,-52"/>
<text text-anchor="middle" x="305.5" y="-31.5" font-family="Helvetica,sans-Serif" font-size="10.00">Python Wrapper</text>
</g>
<!-- rlc&#45;&gt;python -->
<g id="edge8" class="edge">
<title>rlc&#45;&gt;python</title>
<path fill="none" stroke="black" d="M158.62,-252.84C168.79,-215.73 196.1,-130.01 244,-74 249.63,-67.42 256.59,-61.49 263.78,-56.34"/>
<polygon fill="black" stroke="black" points="265.44,-58.17 269.84,-52.19 262.68,-54.12 265.44,-58.17"/>
</g>
</g>
</svg>
