<?xml version="1.0" encoding="UTF-8" standalone="no"?>
<!DOCTYPE svg PUBLIC "-//W3C//DTD SVG 1.1//EN"
 "http://www.w3.org/Graphics/SVG/1.1/DTD/svg11.dtd">
<!-- Generated by graphviz version 2.43.0 (0)
 -->
<!-- Title: PlayFourTimes Pages: 1 -->
<svg width="321pt" height="799pt"
 viewBox="0.00 0.00 320.54 799.00" xmlns="http://www.w3.org/2000/svg" xmlns:xlink="http://www.w3.org/1999/xlink">
<g id="graph0" class="graph" transform="scale(1 1) rotate(0) translate(4 795)">
<title>PlayFourTimes</title>
<polygon fill="white" stroke="transparent" points="-4,4 -4,-795 316.54,-795 316.54,4 -4,4"/>
<!-- S0 -->
<g id="node1" class="node">
<title>S0</title>
<ellipse fill="lightyellow" stroke="black" cx="194.54" cy="-773" rx="34.39" ry="18"/>
<text text-anchor="middle" x="194.54" y="-769.3" font-family="Times,serif" font-size="14.00">Start</text>
</g>
<!-- G1 -->
<g id="node2" class="node">
<title>G1</title>
<ellipse fill="lightyellow" stroke="black" cx="194.54" cy="-700" rx="69.59" ry="18"/>
<text text-anchor="middle" x="194.54" y="-696.3" font-family="Times,serif" font-size="14.00">Play Game 1</text>
</g>
<!-- S0&#45;&gt;G1 -->
<g id="edge1" class="edge">
<title>S0&#45;&gt;G1</title>
<path fill="none" stroke="black" d="M194.54,-754.81C194.54,-746.79 194.54,-737.05 194.54,-728.07"/>
<polygon fill="black" stroke="black" points="198.04,-728.03 194.54,-718.03 191.04,-728.03 198.04,-728.03"/>
</g>
<!-- Q1 -->
<g id="node3" class="node">
<title>Q1</title>
<ellipse fill="lightyellow" stroke="black" cx="194.54" cy="-613" rx="96.68" ry="18"/>
<text text-anchor="middle" x="194.54" y="-609.3" font-family="Times,serif" font-size="14.00">Ask to Play Again?</text>
</g>
<!-- G1&#45;&gt;Q1 -->
<g id="edge2" class="edge">
<title>G1&#45;&gt;Q1</title>
<path fill="none" stroke="black" d="M194.54,-681.8C194.54,-670.16 194.54,-654.55 194.54,-641.24"/>
<polygon fill="black" stroke="black" points="198.04,-641.18 194.54,-631.18 191.04,-641.18 198.04,-641.18"/>
<text text-anchor="middle" x="253.54" y="-652.8" font-family="Times,serif" font-size="14.00">game1 complete</text>
</g>
<!-- G2 -->
<g id="node4" class="node">
<title>G2</title>
<ellipse fill="lightyellow" stroke="black" cx="128.54" cy="-526" rx="69.59" ry="18"/>
<text text-anchor="middle" x="128.54" y="-522.3" font-family="Times,serif" font-size="14.00">Play Game 2</text>
</g>
<!-- Q1&#45;&gt;G2 -->
<g id="edge3" class="edge">
<title>Q1&#45;&gt;G2</title>
<path fill="none" stroke="black" d="M181.19,-594.8C171.64,-582.51 158.65,-565.77 147.96,-552.01"/>
<polygon fill="black" stroke="black" points="150.55,-549.64 141.65,-543.89 145.02,-553.93 150.55,-549.64"/>
<text text-anchor="middle" x="178.04" y="-565.8" font-family="Times,serif" font-size="14.00">yes</text>
</g>
<!-- PT1_END -->
<g id="node5" class="node">
<title>PT1_END</title>
<ellipse fill="lightyellow" stroke="black" cx="180.54" cy="-439" rx="116.18" ry="18"/>
<text text-anchor="middle" x="180.54" y="-435.3" font-family="Times,serif" font-size="14.00">End of First PlayTwice</text>
</g>
<!-- Q1&#45;&gt;PT1_END -->
<g id="edge4" class="edge">
<title>Q1&#45;&gt;PT1_END</title>
<path fill="none" stroke="black" d="M207.18,-595.09C225.52,-568.31 255.1,-515.07 233.54,-475 231.06,-470.38 227.67,-466.28 223.8,-462.65"/>
<polygon fill="black" stroke="black" points="225.85,-459.8 215.87,-456.25 221.46,-465.25 225.85,-459.8"/>
<text text-anchor="middle" x="250.54" y="-522.3" font-family="Times,serif" font-size="14.00">no</text>
</g>
<!-- G2&#45;&gt;PT1_END -->
<g id="edge5" class="edge">
<title>G2&#45;&gt;PT1_END</title>
<path fill="none" stroke="black" d="M117.85,-507.86C113.01,-497.75 109.56,-485.01 115.54,-475 118.62,-469.85 122.74,-465.42 127.42,-461.61"/>
<polygon fill="black" stroke="black" points="129.56,-464.38 135.74,-455.77 125.54,-458.65 129.56,-464.38"/>
<text text-anchor="middle" x="174.54" y="-478.8" font-family="Times,serif" font-size="14.00">game2 complete</text>
</g>
<!-- Q2 -->
<g id="node6" class="node">
<title>Q2</title>
<ellipse fill="lightyellow" stroke="black" cx="180.54" cy="-366" rx="96.68" ry="18"/>
<text text-anchor="middle" x="180.54" y="-362.3" font-family="Times,serif" font-size="14.00">Ask to Play Again?</text>
</g>
<!-- PT1_END&#45;&gt;Q2 -->
<g id="edge6" class="edge">
<title>PT1_END&#45;&gt;Q2</title>
<path fill="none" stroke="black" d="M180.54,-420.81C180.54,-412.79 180.54,-403.05 180.54,-394.07"/>
<polygon fill="black" stroke="black" points="184.04,-394.03 180.54,-384.03 177.04,-394.03 184.04,-394.03"/>
</g>
<!-- G3 -->
<g id="node7" class="node">
<title>G3</title>
<ellipse fill="lightyellow" stroke="black" cx="122.54" cy="-279" rx="69.59" ry="18"/>
<text text-anchor="middle" x="122.54" y="-275.3" font-family="Times,serif" font-size="14.00">Play Game 3</text>
</g>
<!-- Q2&#45;&gt;G3 -->
<g id="edge7" class="edge">
<title>Q2&#45;&gt;G3</title>
<path fill="none" stroke="black" d="M168.81,-347.8C160.5,-335.62 149.22,-319.09 139.87,-305.4"/>
<polygon fill="black" stroke="black" points="142.59,-303.17 134.07,-296.89 136.81,-307.12 142.59,-303.17"/>
<text text-anchor="middle" x="168.04" y="-318.8" font-family="Times,serif" font-size="14.00">yes</text>
</g>
<!-- END -->
<g id="node10" class="node">
<title>END</title>
<ellipse fill="lightyellow" stroke="black" cx="191.54" cy="-18" rx="55.79" ry="18"/>
<text text-anchor="middle" x="191.54" y="-14.3" font-family="Times,serif" font-size="14.00">Final End</text>
</g>
<!-- Q2&#45;&gt;END -->
<g id="edge8" class="edge">
<title>Q2&#45;&gt;END</title>
<path fill="none" stroke="black" d="M200.48,-348.3C216.92,-332.56 237.54,-307.36 237.54,-280 237.54,-280 237.54,-280 237.54,-104 237.54,-81.77 225.23,-59.79 213.34,-43.75"/>
<polygon fill="black" stroke="black" points="215.79,-41.2 206.86,-35.48 210.28,-45.51 215.79,-41.2"/>
<text text-anchor="middle" x="246.54" y="-188.3" font-family="Times,serif" font-size="14.00">no</text>
</g>
<!-- Q3 -->
<g id="node8" class="node">
<title>Q3</title>
<ellipse fill="lightyellow" stroke="black" cx="104.54" cy="-192" rx="96.68" ry="18"/>
<text text-anchor="middle" x="104.54" y="-188.3" font-family="Times,serif" font-size="14.00">Ask to Play Again?</text>
</g>
<!-- G3&#45;&gt;Q3 -->
<g id="edge9" class="edge">
<title>G3&#45;&gt;Q3</title>
<path fill="none" stroke="black" d="M112.52,-261.11C109.72,-255.53 107.03,-249.17 105.54,-243 103.82,-235.85 103.13,-227.97 102.98,-220.61"/>
<polygon fill="black" stroke="black" points="106.48,-220.39 103.08,-210.36 99.48,-220.32 106.48,-220.39"/>
<text text-anchor="middle" x="164.54" y="-231.8" font-family="Times,serif" font-size="14.00">game3 complete</text>
</g>
<!-- G4 -->
<g id="node9" class="node">
<title>G4</title>
<ellipse fill="lightyellow" stroke="black" cx="69.54" cy="-105" rx="69.59" ry="18"/>
<text text-anchor="middle" x="69.54" y="-101.3" font-family="Times,serif" font-size="14.00">Play Game 4</text>
</g>
<!-- Q3&#45;&gt;G4 -->
<g id="edge10" class="edge">
<title>Q3&#45;&gt;G4</title>
<path fill="none" stroke="black" d="M97.46,-173.8C92.57,-161.93 85.98,-145.93 80.43,-132.45"/>
<polygon fill="black" stroke="black" points="83.66,-131.09 76.62,-123.18 77.19,-133.75 83.66,-131.09"/>
<text text-anchor="middle" x="102.04" y="-144.8" font-family="Times,serif" font-size="14.00">yes</text>
</g>
<!-- Q3&#45;&gt;END -->
<g id="edge11" class="edge">
<title>Q3&#45;&gt;END</title>
<path fill="none" stroke="black" d="M117,-174.12C133.22,-151.37 161.4,-109.07 177.54,-69 180.51,-61.64 183.09,-53.43 185.2,-45.83"/>
<polygon fill="black" stroke="black" points="188.63,-46.53 187.78,-35.97 181.86,-44.76 188.63,-46.53"/>
<text text-anchor="middle" x="178.54" y="-101.3" font-family="Times,serif" font-size="14.00">no</text>
</g>
<!-- G4&#45;&gt;END -->
<g id="edge12" class="edge">
<title>G4&#45;&gt;END</title>
<path fill="none" stroke="black" d="M59.97,-87.16C55.39,-76.66 52.31,-63.4 59.54,-54 68.64,-42.18 100.66,-33.53 130.89,-27.78"/>
<polygon fill="black" stroke="black" points="131.82,-31.17 141.03,-25.94 130.57,-24.28 131.82,-31.17"/>
<text text-anchor="middle" x="118.54" y="-57.8" font-family="Times,serif" font-size="14.00">game4 complete</text>
</g>
</g>
</svg>
