<?xml version="1.0" encoding="UTF-8" standalone="no"?>
<!DOCTYPE svg PUBLIC "-//W3C//DTD SVG 1.1//EN"
 "http://www.w3.org/Graphics/SVG/1.1/DTD/svg11.dtd">
<!-- Generated by graphviz version 2.43.0 (0)
 -->
<!-- Title: RLC_Pipeline_V Pages: 1 -->
<svg width="289pt" height="1561pt"
 viewBox="0.00 0.00 208.00 1124.00" xmlns="http://www.w3.org/2000/svg" xmlns:xlink="http://www.w3.org/1999/xlink">
<g id="graph0" class="graph" transform="scale(1.39 1.39) rotate(0) translate(4 1120)">
<title>RLC_Pipeline_V</title>
<polygon fill="white" stroke="transparent" points="-4,4 -4,-1120 204,-1120 204,4 -4,4"/>
<!-- lexer -->
<g id="node1" class="node">
<title>lexer</title>
<polygon fill="#dddddd" stroke="#dddddd" points="136.5,-1116 82.5,-1116 82.5,-1080 136.5,-1080 136.5,-1116"/>
<text text-anchor="middle" x="109.5" y="-1095.2" font-family="Helvetica,sans-Serif" font-size="11.00">Lexer</text>
</g>
<!-- parser -->
<g id="node2" class="node">
<title>parser</title>
<polygon fill="#dddddd" stroke="#dddddd" points="136.5,-1008 82.5,-1008 82.5,-972 136.5,-972 136.5,-1008"/>
<text text-anchor="middle" x="109.5" y="-987.2" font-family="Helvetica,sans-Serif" font-size="11.00">Parser</text>
</g>
<!-- lexer&#45;&gt;parser -->
<g id="edge1" class="edge">
<title>lexer&#45;&gt;parser</title>
<path fill="none" stroke="black" d="M109.5,-1079.97C109.5,-1062.53 109.5,-1035.26 109.5,-1015.51"/>
<polygon fill="black" stroke="black" points="111.95,-1015.34 109.5,-1008.34 107.05,-1015.34 111.95,-1015.34"/>
</g>
<!-- unchecked_ast -->
<g id="node3" class="node">
<title>unchecked_ast</title>
<polygon fill="#dddddd" stroke="#dddddd" points="160,-900 59,-900 59,-864 160,-864 160,-900"/>
<text text-anchor="middle" x="109.5" y="-879.2" font-family="Helvetica,sans-Serif" font-size="11.00">Unchecked AST</text>
</g>
<!-- parser&#45;&gt;unchecked_ast -->
<g id="edge2" class="edge">
<title>parser&#45;&gt;unchecked_ast</title>
<path fill="none" stroke="black" d="M109.5,-971.97C109.5,-954.53 109.5,-927.26 109.5,-907.51"/>
<polygon fill="black" stroke="black" points="111.95,-907.34 109.5,-900.34 107.05,-907.34 111.95,-907.34"/>
</g>
<!-- typechecked_ast -->
<g id="node4" class="node">
<title>typechecked_ast</title>
<polygon fill="#dddddd" stroke="#dddddd" points="165.5,-792 53.5,-792 53.5,-756 165.5,-756 165.5,-792"/>
<text text-anchor="middle" x="109.5" y="-771.2" font-family="Helvetica,sans-Serif" font-size="11.00">Typechecked AST</text>
</g>
<!-- unchecked_ast&#45;&gt;typechecked_ast -->
<g id="edge3" class="edge">
<title>unchecked_ast&#45;&gt;typechecked_ast</title>
<path fill="none" stroke="black" d="M109.5,-863.97C109.5,-846.53 109.5,-819.26 109.5,-799.51"/>
<polygon fill="black" stroke="black" points="111.95,-799.34 109.5,-792.34 107.05,-799.34 111.95,-799.34"/>
</g>
<!-- implicit_instantiation -->
<g id="node5" class="node">
<title>implicit_instantiation</title>
<polygon fill="#dddddd" stroke="#dddddd" points="174,-684 45,-684 45,-648 174,-648 174,-684"/>
<text text-anchor="middle" x="109.5" y="-663.2" font-family="Helvetica,sans-Serif" font-size="11.00">Implicit Instantiation</text>
</g>
<!-- typechecked_ast&#45;&gt;implicit_instantiation -->
<g id="edge4" class="edge">
<title>typechecked_ast&#45;&gt;implicit_instantiation</title>
<path fill="none" stroke="black" d="M109.5,-755.97C109.5,-738.53 109.5,-711.26 109.5,-691.51"/>
<polygon fill="black" stroke="black" points="111.95,-691.34 109.5,-684.34 107.05,-691.34 111.95,-691.34"/>
</g>
<!-- flattened -->
<g id="node6" class="node">
<title>flattened</title>
<polygon fill="#dddddd" stroke="#dddddd" points="87.5,-576 19.5,-576 19.5,-540 87.5,-540 87.5,-576"/>
<text text-anchor="middle" x="53.5" y="-555.2" font-family="Helvetica,sans-Serif" font-size="11.00">Flattened</text>
</g>
<!-- implicit_instantiation&#45;&gt;flattened -->
<g id="edge5" class="edge">
<title>implicit_instantiation&#45;&gt;flattened</title>
<path fill="none" stroke="black" d="M100.5,-647.97C91.17,-630.3 76.5,-602.54 66.04,-582.73"/>
<polygon fill="black" stroke="black" points="68.1,-581.39 62.66,-576.34 63.76,-583.67 68.1,-581.39"/>
</g>
<!-- wrappers -->
<g id="node13" class="node">
<title>wrappers</title>
<polygon fill="#dddddd" stroke="#dddddd" points="200,-576 131,-576 131,-540 200,-540 200,-576"/>
<text text-anchor="middle" x="165.5" y="-555.2" font-family="Helvetica,sans-Serif" font-size="11.00">Wrappers</text>
</g>
<!-- implicit_instantiation&#45;&gt;wrappers -->
<g id="edge12" class="edge">
<title>implicit_instantiation&#45;&gt;wrappers</title>
<path fill="none" stroke="black" d="M118.5,-647.97C127.83,-630.3 142.5,-602.54 152.96,-582.73"/>
<polygon fill="black" stroke="black" points="155.24,-583.67 156.34,-576.34 150.9,-581.39 155.24,-583.67"/>
</g>
<!-- action_rewriting -->
<g id="node7" class="node">
<title>action_rewriting</title>
<polygon fill="#dddddd" stroke="#dddddd" points="107,-468 0,-468 0,-432 107,-432 107,-468"/>
<text text-anchor="middle" x="53.5" y="-447.2" font-family="Helvetica,sans-Serif" font-size="11.00">Action Rewriting</text>
</g>
<!-- flattened&#45;&gt;action_rewriting -->
<g id="edge6" class="edge">
<title>flattened&#45;&gt;action_rewriting</title>
<path fill="none" stroke="black" d="M53.5,-539.97C53.5,-522.53 53.5,-495.26 53.5,-475.51"/>
<polygon fill="black" stroke="black" points="55.95,-475.34 53.5,-468.34 51.05,-475.34 55.95,-475.34"/>
</g>
<!-- llvm_ir -->
<g id="node8" class="node">
<title>llvm_ir</title>
<polygon fill="#dddddd" stroke="#dddddd" points="83,-360 24,-360 24,-324 83,-324 83,-360"/>
<text text-anchor="middle" x="53.5" y="-339.2" font-family="Helvetica,sans-Serif" font-size="11.00">LLVM IR</text>
</g>
<!-- action_rewriting&#45;&gt;llvm_ir -->
<g id="edge7" class="edge">
<title>action_rewriting&#45;&gt;llvm_ir</title>
<path fill="none" stroke="black" d="M53.5,-431.97C53.5,-414.53 53.5,-387.26 53.5,-367.51"/>
<polygon fill="black" stroke="black" points="55.95,-367.34 53.5,-360.34 51.05,-367.34 55.95,-367.34"/>
</g>
<!-- file_a -->
<g id="node9" class="node">
<title>file_a</title>
<polygon fill="#dddddd" stroke="#dddddd" points="80.5,-252 26.5,-252 26.5,-216 80.5,-216 80.5,-252"/>
<text text-anchor="middle" x="53.5" y="-231.2" font-family="Helvetica,sans-Serif" font-size="11.00">file.a</text>
</g>
<!-- llvm_ir&#45;&gt;file_a -->
<g id="edge8" class="edge">
<title>llvm_ir&#45;&gt;file_a</title>
<path fill="none" stroke="black" d="M53.5,-323.97C53.5,-306.53 53.5,-279.26 53.5,-259.51"/>
<polygon fill="black" stroke="black" points="55.95,-259.34 53.5,-252.34 51.05,-259.34 55.95,-259.34"/>
</g>
<!-- linker -->
<g id="node10" class="node">
<title>linker</title>
<polygon fill="#dddddd" stroke="#dddddd" points="133.5,-144 79.5,-144 79.5,-108 133.5,-108 133.5,-144"/>
<text text-anchor="middle" x="106.5" y="-123.2" font-family="Helvetica,sans-Serif" font-size="11.00">Linker</text>
</g>
<!-- file_a&#45;&gt;linker -->
<g id="edge9" class="edge">
<title>file_a&#45;&gt;linker</title>
<path fill="none" stroke="black" d="M62.02,-215.97C70.85,-198.3 84.73,-170.54 94.64,-150.73"/>
<polygon fill="black" stroke="black" points="96.89,-151.7 97.83,-144.34 92.51,-149.51 96.89,-151.7"/>
</g>
<!-- lib_so -->
<g id="node11" class="node">
<title>lib_so</title>
<polygon fill="#dddddd" stroke="#dddddd" points="133.5,-36 79.5,-36 79.5,0 133.5,0 133.5,-36"/>
<text text-anchor="middle" x="106.5" y="-15.2" font-family="Helvetica,sans-Serif" font-size="11.00">lib.so</text>
</g>
<!-- linker&#45;&gt;lib_so -->
<g id="edge10" class="edge">
<title>linker&#45;&gt;lib_so</title>
<path fill="none" stroke="black" d="M106.5,-107.97C106.5,-90.53 106.5,-63.26 106.5,-43.51"/>
<polygon fill="black" stroke="black" points="108.95,-43.34 106.5,-36.34 104.05,-43.34 108.95,-43.34"/>
</g>
<!-- libruntime -->
<g id="node12" class="node">
<title>libruntime</title>
<polygon fill="#8ecae6" stroke="#8ecae6" points="189.5,-252 123.5,-252 123.5,-216 195.5,-216 195.5,-246 189.5,-252"/>
<polyline fill="none" stroke="#8ecae6" points="189.5,-252 189.5,-246 "/>
<polyline fill="none" stroke="#8ecae6" points="195.5,-246 189.5,-246 "/>
<text text-anchor="middle" x="159.5" y="-231.2" font-family="Helvetica,sans-Serif" font-size="11.00" fill="#0a3045">libruntime</text>
</g>
<!-- libruntime&#45;&gt;linker -->
<g id="edge11" class="edge">
<title>libruntime&#45;&gt;linker</title>
<path fill="none" stroke="black" d="M150.98,-215.97C142.15,-198.3 128.27,-170.54 118.36,-150.73"/>
<polygon fill="black" stroke="black" points="120.49,-149.51 115.17,-144.34 116.11,-151.7 120.49,-149.51"/>
</g>
</g>
</svg>
