<?xml version="1.0" encoding="UTF-8" standalone="no"?>
<!DOCTYPE svg PUBLIC "-//W3C//DTD SVG 1.1//EN"
 "http://www.w3.org/Graphics/SVG/1.1/DTD/svg11.dtd">
<!-- Generated by graphviz version 2.43.0 (0)
 -->
<!-- Title: CheckoutFlow Pages: 1 -->
<svg width="854pt" height="802pt"
 viewBox="0.00 0.00 854.00 802.00" xmlns="http://www.w3.org/2000/svg" xmlns:xlink="http://www.w3.org/1999/xlink">
<g id="graph0" class="graph" transform="scale(1 1) rotate(0) translate(4 798)">
<title>CheckoutFlow</title>
<polygon fill="white" stroke="transparent" points="-4,4 -4,-798 850,-798 850,4 -4,4"/>
<g id="clust1" class="cluster">
<title>cluster_errors</title>
<polygon fill="none" stroke="red" stroke-dasharray="5,2" points="255,-8 255,-83 838,-83 838,-8 255,-8"/>
<text text-anchor="middle" x="546.5" y="-67.8" font-family="Times,serif" font-size="14.00">Errors / Exceptions</text>
</g>
<g id="clust2" class="cluster">
<title>cluster_flow</title>
<polygon fill="none" stroke="black" points="8,-8 8,-786 247,-786 247,-8 8,-8"/>
<text text-anchor="middle" x="127.5" y="-770.8" font-family="Times,serif" font-size="14.00">Main Checkout Flow</text>
</g>
<!-- Start -->
<g id="node1" class="node">
<title>Start</title>
<polygon fill="lightgray" stroke="black" points="187,-755 133,-755 133,-719 187,-719 187,-755"/>
<text text-anchor="middle" x="160" y="-733.3" font-family="Times,serif" font-size="14.00">Start</text>
</g>
<!-- CartReview -->
<g id="node2" class="node">
<title>CartReview</title>
<polygon fill="lightgray" stroke="black" points="210,-682 110,-682 110,-646 210,-646 210,-682"/>
<text text-anchor="middle" x="160" y="-660.3" font-family="Times,serif" font-size="14.00">CartReview</text>
</g>
<!-- Start&#45;&gt;CartReview -->
<g id="edge1" class="edge">
<title>Start&#45;&gt;CartReview</title>
<path fill="none" stroke="black" d="M160,-718.81C160,-710.79 160,-701.05 160,-692.07"/>
<polygon fill="black" stroke="black" points="163.5,-692.03 160,-682.03 156.5,-692.03 163.5,-692.03"/>
</g>
<!-- Login -->
<g id="node3" class="node">
<title>Login</title>
<polygon fill="lightgray" stroke="black" points="72,-595 16,-595 16,-559 72,-559 72,-595"/>
<text text-anchor="middle" x="44" y="-573.3" font-family="Times,serif" font-size="14.00">Login</text>
</g>
<!-- CartReview&#45;&gt;Login -->
<g id="edge2" class="edge">
<title>CartReview&#45;&gt;Login</title>
<path fill="none" stroke="black" d="M109.79,-655.25C79.22,-649.39 44.29,-640.25 35,-628 30,-621.41 29.87,-612.93 31.72,-604.83"/>
<polygon fill="black" stroke="black" points="35.06,-605.89 34.76,-595.3 28.39,-603.76 35.06,-605.89"/>
<text text-anchor="middle" x="86.5" y="-616.8" font-family="Times,serif" font-size="14.00">Not Logged In</text>
</g>
<!-- AddressSelection -->
<g id="node4" class="node">
<title>AddressSelection</title>
<polygon fill="lightgray" stroke="black" points="181,-508 41,-508 41,-472 181,-472 181,-508"/>
<text text-anchor="middle" x="111" y="-486.3" font-family="Times,serif" font-size="14.00">AddressSelection</text>
</g>
<!-- CartReview&#45;&gt;AddressSelection -->
<g id="edge3" class="edge">
<title>CartReview&#45;&gt;AddressSelection</title>
<path fill="none" stroke="black" stroke-dasharray="1,5" d="M176.81,-645.82C180.95,-640.53 184.82,-634.39 187,-628 189.15,-621.69 188.83,-619.41 187,-613 176.43,-576.03 151.05,-539.37 132.52,-516.04"/>
<polygon fill="black" stroke="black" points="135.07,-513.62 126.04,-508.07 129.63,-518.04 135.07,-513.62"/>
<text text-anchor="middle" x="245.5" y="-573.3" font-family="Times,serif" font-size="14.00">Already Logged In</text>
</g>
<!-- Login&#45;&gt;CartReview -->
<g id="edge10" class="edge">
<title>Login&#45;&gt;CartReview</title>
<path fill="none" stroke="black" d="M72.39,-589.72C76.93,-591.53 81.58,-593.34 86,-595 108.9,-603.59 120.02,-596.42 138,-613 144.72,-619.19 149.49,-627.8 152.84,-636.13"/>
<polygon fill="black" stroke="black" points="149.55,-637.33 156.14,-645.63 156.16,-635.03 149.55,-637.33"/>
<text text-anchor="middle" x="165.5" y="-616.8" font-family="Times,serif" font-size="14.00">Back</text>
</g>
<!-- Login&#45;&gt;AddressSelection -->
<g id="edge4" class="edge">
<title>Login&#45;&gt;AddressSelection</title>
<path fill="none" stroke="black" d="M68.92,-558.8C75.34,-553.58 81.88,-547.5 87,-541 92.51,-534.01 97.17,-525.55 100.87,-517.59"/>
<polygon fill="black" stroke="black" points="104.15,-518.84 104.91,-508.27 97.73,-516.05 104.15,-518.84"/>
</g>
<!-- AddressSelection&#45;&gt;Login -->
<g id="edge11" class="edge">
<title>AddressSelection&#45;&gt;Login</title>
<path fill="none" stroke="black" d="M66.74,-508.12C59.4,-512.85 52.67,-518.74 48,-526 43.68,-532.72 41.94,-541.05 41.49,-548.97"/>
<polygon fill="black" stroke="black" points="37.99,-548.99 41.53,-558.98 44.99,-548.96 37.99,-548.99"/>
<text text-anchor="middle" x="65.5" y="-529.8" font-family="Times,serif" font-size="14.00">Back</text>
</g>
<!-- ShippingMethod -->
<g id="node5" class="node">
<title>ShippingMethod</title>
<polygon fill="lightgray" stroke="black" points="211.5,-421 76.5,-421 76.5,-385 211.5,-385 211.5,-421"/>
<text text-anchor="middle" x="144" y="-399.3" font-family="Times,serif" font-size="14.00">ShippingMethod</text>
</g>
<!-- AddressSelection&#45;&gt;ShippingMethod -->
<g id="edge5" class="edge">
<title>AddressSelection&#45;&gt;ShippingMethod</title>
<path fill="none" stroke="black" d="M112.28,-471.83C113.46,-461.94 115.71,-449.44 120,-439 121.26,-435.93 122.82,-432.86 124.53,-429.89"/>
<polygon fill="black" stroke="black" points="127.56,-431.64 129.99,-421.33 121.66,-427.87 127.56,-431.64"/>
</g>
<!-- InvalidAddress -->
<g id="node10" class="node">
<title>InvalidAddress</title>
<polygon fill="lightgray" stroke="black" points="829.5,-52 706.5,-52 706.5,-16 829.5,-16 829.5,-52"/>
<text text-anchor="middle" x="768" y="-30.3" font-family="Times,serif" font-size="14.00">InvalidAddress</text>
</g>
<!-- AddressSelection&#45;&gt;InvalidAddress -->
<g id="edge16" class="edge">
<title>AddressSelection&#45;&gt;InvalidAddress</title>
<path fill="none" stroke="black" stroke-dasharray="5,2" d="M181.23,-486.95C347.82,-481.15 753,-461.16 753,-404 753,-404 753,-404 753,-141 753,-113.97 757.84,-83.44 762.02,-62.11"/>
<polygon fill="black" stroke="black" points="765.48,-62.65 764.06,-52.15 758.63,-61.25 765.48,-62.65"/>
<text text-anchor="middle" x="777.5" y="-268.8" font-family="Times,serif" font-size="14.00">Invalid</text>
</g>
<!-- ShippingMethod&#45;&gt;AddressSelection -->
<g id="edge12" class="edge">
<title>ShippingMethod&#45;&gt;AddressSelection</title>
<path fill="none" stroke="black" d="M137.33,-421.18C132.77,-432.92 126.63,-448.73 121.43,-462.13"/>
<polygon fill="black" stroke="black" points="118.03,-461.21 117.68,-471.8 124.56,-463.74 118.03,-461.21"/>
<text text-anchor="middle" x="146.5" y="-442.8" font-family="Times,serif" font-size="14.00">Back</text>
</g>
<!-- PaymentMethod -->
<g id="node6" class="node">
<title>PaymentMethod</title>
<polygon fill="lightgray" stroke="black" points="235,-334 101,-334 101,-298 235,-298 235,-334"/>
<text text-anchor="middle" x="168" y="-312.3" font-family="Times,serif" font-size="14.00">PaymentMethod</text>
</g>
<!-- ShippingMethod&#45;&gt;PaymentMethod -->
<g id="edge6" class="edge">
<title>ShippingMethod&#45;&gt;PaymentMethod</title>
<path fill="none" stroke="black" d="M144.06,-384.54C144.51,-374.78 145.77,-362.51 149,-352 149.91,-349.06 151.07,-346.08 152.38,-343.16"/>
<polygon fill="black" stroke="black" points="155.52,-344.71 156.9,-334.2 149.27,-341.55 155.52,-344.71"/>
</g>
<!-- ShippingUnavailable -->
<g id="node11" class="node">
<title>ShippingUnavailable</title>
<polygon fill="lightgray" stroke="black" points="688.5,-52 523.5,-52 523.5,-16 688.5,-16 688.5,-52"/>
<text text-anchor="middle" x="606" y="-30.3" font-family="Times,serif" font-size="14.00">ShippingUnavailable</text>
</g>
<!-- ShippingMethod&#45;&gt;ShippingUnavailable -->
<g id="edge17" class="edge">
<title>ShippingMethod&#45;&gt;ShippingUnavailable</title>
<path fill="none" stroke="black" stroke-dasharray="5,2" d="M211.59,-400.71C321.54,-396.77 527,-380.85 527,-317 527,-317 527,-317 527,-141 527,-107.89 552.09,-78.43 574,-59.02"/>
<polygon fill="black" stroke="black" points="576.51,-61.48 581.87,-52.34 571.98,-56.14 576.51,-61.48"/>
<text text-anchor="middle" x="569.5" y="-225.3" font-family="Times,serif" font-size="14.00">Unavailable</text>
</g>
<!-- PaymentMethod&#45;&gt;ShippingMethod -->
<g id="edge13" class="edge">
<title>PaymentMethod&#45;&gt;ShippingMethod</title>
<path fill="none" stroke="black" d="M163.15,-334.18C159.83,-345.92 155.37,-361.73 151.59,-375.13"/>
<polygon fill="black" stroke="black" points="148.21,-374.22 148.86,-384.8 154.94,-376.13 148.21,-374.22"/>
<text text-anchor="middle" x="174.5" y="-355.8" font-family="Times,serif" font-size="14.00">Back</text>
</g>
<!-- OrderReview -->
<g id="node7" class="node">
<title>OrderReview</title>
<polygon fill="lightgray" stroke="black" points="221,-247 111,-247 111,-211 221,-211 221,-247"/>
<text text-anchor="middle" x="166" y="-225.3" font-family="Times,serif" font-size="14.00">OrderReview</text>
</g>
<!-- PaymentMethod&#45;&gt;OrderReview -->
<g id="edge7" class="edge">
<title>PaymentMethod&#45;&gt;OrderReview</title>
<path fill="none" stroke="black" d="M163.23,-297.69C161.91,-292.09 160.66,-285.82 160,-280 159.16,-272.56 159.55,-264.5 160.45,-257.07"/>
<polygon fill="black" stroke="black" points="163.92,-257.53 161.97,-247.12 157,-256.47 163.92,-257.53"/>
</g>
<!-- PaymentFailed -->
<g id="node12" class="node">
<title>PaymentFailed</title>
<polygon fill="lightgray" stroke="black" points="505,-52 383,-52 383,-16 505,-16 505,-52"/>
<text text-anchor="middle" x="444" y="-30.3" font-family="Times,serif" font-size="14.00">PaymentFailed</text>
</g>
<!-- PaymentMethod&#45;&gt;PaymentFailed -->
<g id="edge18" class="edge">
<title>PaymentMethod&#45;&gt;PaymentFailed</title>
<path fill="none" stroke="black" stroke-dasharray="5,2" d="M187.14,-297.76C193.23,-292.16 199.96,-285.88 206,-280 286.76,-201.36 378.81,-104.42 420.85,-59.72"/>
<polygon fill="black" stroke="black" points="423.58,-61.93 427.87,-52.25 418.47,-57.14 423.58,-61.93"/>
<text text-anchor="middle" x="349" y="-181.8" font-family="Times,serif" font-size="14.00">Invalid Card</text>
</g>
<!-- OrderReview&#45;&gt;PaymentMethod -->
<g id="edge14" class="edge">
<title>OrderReview&#45;&gt;PaymentMethod</title>
<path fill="none" stroke="black" d="M166.4,-247.18C166.68,-258.81 167.05,-274.42 167.36,-287.73"/>
<polygon fill="black" stroke="black" points="163.86,-287.88 167.6,-297.8 170.86,-287.72 163.86,-287.88"/>
<text text-anchor="middle" x="184.5" y="-268.8" font-family="Times,serif" font-size="14.00">Back</text>
</g>
<!-- ConfirmOrder -->
<g id="node8" class="node">
<title>ConfirmOrder</title>
<polygon fill="lightgray" stroke="black" points="239,-160 123,-160 123,-124 239,-124 239,-160"/>
<text text-anchor="middle" x="181" y="-138.3" font-family="Times,serif" font-size="14.00">ConfirmOrder</text>
</g>
<!-- OrderReview&#45;&gt;ConfirmOrder -->
<g id="edge8" class="edge">
<title>OrderReview&#45;&gt;ConfirmOrder</title>
<path fill="none" stroke="black" d="M163.08,-210.67C161.99,-200.95 161.55,-188.67 164,-178 164.65,-175.16 165.57,-172.29 166.64,-169.47"/>
<polygon fill="black" stroke="black" points="169.88,-170.79 170.72,-160.23 163.48,-167.96 169.88,-170.79"/>
</g>
<!-- ConfirmOrder&#45;&gt;OrderReview -->
<g id="edge15" class="edge">
<title>ConfirmOrder&#45;&gt;OrderReview</title>
<path fill="none" stroke="black" d="M177.97,-160.18C175.92,-171.81 173.16,-187.42 170.81,-200.73"/>
<polygon fill="black" stroke="black" points="167.33,-200.34 169.04,-210.8 174.22,-201.56 167.33,-200.34"/>
<text text-anchor="middle" x="191.5" y="-181.8" font-family="Times,serif" font-size="14.00">Back</text>
</g>
<!-- ReceiptPage -->
<g id="node9" class="node">
<title>ReceiptPage</title>
<polygon fill="lightgray" stroke="black" points="233.5,-52 128.5,-52 128.5,-16 233.5,-16 233.5,-52"/>
<text text-anchor="middle" x="181" y="-30.3" font-family="Times,serif" font-size="14.00">ReceiptPage</text>
</g>
<!-- ConfirmOrder&#45;&gt;ReceiptPage -->
<g id="edge9" class="edge">
<title>ConfirmOrder&#45;&gt;ReceiptPage</title>
<path fill="none" stroke="black" d="M181,-123.97C181,-107.38 181,-81.88 181,-62.43"/>
<polygon fill="black" stroke="black" points="184.5,-62.34 181,-52.34 177.5,-62.34 184.5,-62.34"/>
</g>
<!-- OrderFailed -->
<g id="node13" class="node">
<title>OrderFailed</title>
<polygon fill="lightgray" stroke="black" points="365,-52 263,-52 263,-16 365,-16 365,-52"/>
<text text-anchor="middle" x="314" y="-30.3" font-family="Times,serif" font-size="14.00">OrderFailed</text>
</g>
<!-- ConfirmOrder&#45;&gt;OrderFailed -->
<g id="edge19" class="edge">
<title>ConfirmOrder&#45;&gt;OrderFailed</title>
<path fill="none" stroke="black" stroke-dasharray="5,2" d="M202.37,-123.97C224.54,-106.3 259.37,-78.54 284.23,-58.73"/>
<polygon fill="black" stroke="black" points="286.6,-61.31 292.24,-52.34 282.24,-55.84 286.6,-61.31"/>
<text text-anchor="middle" x="296" y="-94.8" font-family="Times,serif" font-size="14.00">Payment Error</text>
</g>
</g>
</svg>
